<?xml version="1.0" encoding="UTF-8" standalone="no"?><svg xmlns="http://www.w3.org/2000/svg" xmlns:xlink="http://www.w3.org/1999/xlink" contentScriptType="application/ecmascript" contentStyleType="text/css" height="705px" preserveAspectRatio="none" style="width:438px;height:705px;" version="1.1" viewBox="0 0 438 705" width="438px" zoomAndPan="magnify"><defs><filter height="300%" id="f8v6hdh4jgpcn" width="300%" x="-1" y="-1"><feGaussianBlur result="blurOut" stdDeviation="2.0"/><feColorMatrix in="blurOut" result="blurOut2" type="matrix" values="0 0 0 0 0 0 0 0 0 0 0 0 0 0 0 0 0 0 .4 0"/><feOffset dx="4.0" dy="4.0" in="blurOut2" result="blurOut3"/><feBlend in="SourceGraphic" in2="blurOut3" mode="normal"/></filter></defs><g><!--MD5=[643947582102f694b546e8d11fa2fdbe]
cluster Movement--><rect fill="#FEFECE" filter="url(#f8v6hdh4jgpcn)" height="670" rx="12.5" ry="12.5" style="stroke: #A80036; stroke-width: 1.5;" width="404" x="22" y="24"/><rect fill="#FFFFFF" height="634.9321" rx="12.5" ry="12.5" style="stroke: #FFFFFF; stroke-width: 1.0;" width="398" x="25" y="56.0679"/><line style="stroke: #A80036; stroke-width: 1.5;" x1="22" x2="426" y1="53.0679" y2="53.0679"/><text fill="#000000" font-family="sans-serif" font-size="14" lengthAdjust="spacingAndGlyphs" textLength="71" x="188.5" y="42.9659">Movement</text><!--MD5=[687210b7d685040608df215380f057fd]
cluster Airborne--><rect fill="#FEFECE" filter="url(#f8v6hdh4jgpcn)" height="477" rx="12.5" ry="12.5" style="stroke: #A80036; stroke-width: 1.5;" width="340" x="54" y="185"/><rect fill="#FFFFFF" height="441.9321" rx="12.5" ry="12.5" style="stroke: #FFFFFF; stroke-width: 1.0;" width="334" x="57" y="217.0679"/><line style="stroke: #A80036; stroke-width: 1.5;" x1="54" x2="394" y1="214.0679" y2="214.0679"/><text fill="#000000" font-family="sans-serif" font-size="14" lengthAdjust="spacingAndGlyphs" textLength="59" x="194.5" y="203.9659">Airborne</text><rect fill="#FEFECE" filter="url(#f8v6hdh4jgpcn)" height="50" rx="12.5" ry="12.5" style="stroke: #A80036; stroke-width: 1.5;" width="88" x="140" y="62"/><line style="stroke: #A80036; stroke-width: 1.5;" x1="140" x2="228" y1="91.0679" y2="91.0679"/><text fill="#000000" font-family="sans-serif" font-size="14" lengthAdjust="spacingAndGlyphs" textLength="68" x="150" y="81.9659">Grounded</text><ellipse cx="170" cy="241" fill="#000000" filter="url(#f8v6hdh4jgpcn)" rx="10" ry="10" style="stroke: none; stroke-width: 1.0;"/><rect fill="#FEFECE" filter="url(#f8v6hdh4jgpcn)" height="50" rx="12.5" ry="12.5" style="stroke: #A80036; stroke-width: 1.5;" width="155" x="92.5" y="330"/><line style="stroke: #A80036; stroke-width: 1.5;" x1="92.5" x2="247.5" y1="359.0679" y2="359.0679"/><text fill="#000000" font-family="sans-serif" font-size="14" lengthAdjust="spacingAndGlyphs" textLength="135" x="102.5" y="349.9659">CoyoteJumpEnabled</text><rect fill="#FEFECE" filter="url(#f8v6hdh4jgpcn)" height="50" rx="12.5" ry="12.5" style="stroke: #A80036; stroke-width: 1.5;" width="158" x="212" y="459"/><line style="stroke: #A80036; stroke-width: 1.5;" x1="212" x2="370" y1="488.0679" y2="488.0679"/><text fill="#000000" font-family="sans-serif" font-size="14" lengthAdjust="spacingAndGlyphs" textLength="138" x="222" y="478.9659">DoubleJumpEnabled</text><rect fill="#FEFECE" filter="url(#f8v6hdh4jgpcn)" height="50" rx="12.5" ry="12.5" style="stroke: #A80036; stroke-width: 1.5;" width="103" x="130.5" y="588"/><line style="stroke: #A80036; stroke-width: 1.5;" x1="130.5" x2="233.5" y1="617.0679" y2="617.0679"/><text fill="#000000" font-family="sans-serif" font-size="14" lengthAdjust="spacingAndGlyphs" textLength="83" x="140.5" y="607.9659">CannotJump</text><!--MD5=[2b432747e9a7b4a1de7c1bd4745bcb44]
link *start*Airborne to CoyoteJumpEnabled--><path d="M170,251.17 C170,267.07 170,300.4 170,324.82 " fill="none" id="*start*Airborne-&gt;CoyoteJumpEnabled" style="stroke: #A80036; stroke-width: 1.0;"/><polygon fill="#A80036" points="170,329.89,174,320.89,170,324.89,166,320.89,170,329.89" style="stroke: #A80036; stroke-width: 1.0;"/><!--MD5=[684ccb15a982c6729dd03619c78d58ba]
link CoyoteJumpEnabled to DoubleJumpEnabled--><path d="M155.4,380.12 C148.29,395.27 143.17,414.6 153,429 C165.74,447.67 185.99,459.88 207.09,467.88 " fill="none" id="CoyoteJumpEnabled-&gt;DoubleJumpEnabled" style="stroke: #A80036; stroke-width: 1.0;"/><polygon fill="#A80036" points="211.89,469.62,204.7872,462.7973,207.1881,467.9193,202.0661,470.3203,211.89,469.62" style="stroke: #A80036; stroke-width: 1.0;"/><text fill="#000000" font-family="sans-serif" font-size="13" lengthAdjust="spacingAndGlyphs" textLength="53" x="154" y="424.897">On Jump</text><!--MD5=[9e73866773539fee97c85b1463889290]
link DoubleJumpEnabled to CannotJump--><path d="M270.24,509.19 C251.91,530.55 225.17,561.7 205.94,584.11 " fill="none" id="DoubleJumpEnabled-&gt;CannotJump" style="stroke: #A80036; stroke-width: 1.0;"/><polygon fill="#A80036" points="202.68,587.9,211.5741,583.6699,205.934,584.1037,205.5001,578.4635,202.68,587.9" style="stroke: #A80036; stroke-width: 1.0;"/><text fill="#000000" font-family="sans-serif" font-size="13" lengthAdjust="spacingAndGlyphs" textLength="53" x="244" y="553.897">On Jump</text><!--MD5=[fafec353fd96a2c53b8687be9d66062c]
link CoyoteJumpEnabled to CannotJump--><path d="M152.6,380.08 C147.12,389.03 141.78,399.55 139,410 C127.66,452.51 130.36,465.86 139,509 C144.25,535.21 156.33,563.08 166.35,583.21 " fill="none" id="CoyoteJumpEnabled-&gt;CannotJump" style="stroke: #A80036; stroke-width: 1.0;"/><polygon fill="#A80036" points="168.72,587.9,168.2602,578.0619,166.4782,583.4307,161.1094,581.6487,168.72,587.9" style="stroke: #A80036; stroke-width: 1.0;"/><text fill="#000000" font-family="sans-serif" font-size="13" lengthAdjust="spacingAndGlyphs" textLength="54" x="140" y="489.397">after 0.5s</text><!--MD5=[dbe2063fa4ddc6f538c72c04cc60aa0e]
link Grounded to Airborne--><path d="M139.98,107.79 C115.17,121.35 86.03,141.81 70,169 C68.0475,172.3125 66.4506,175.8639 65.1519,179.5478 C64.8272,180.4687 64.5211,181.398 64.2328,182.3338 C64.0887,182.8018 63.9489,183.2714 63.8135,183.7424 C63.7458,183.9779 63.6792,184.2138 63.6136,184.45 C63.5809,184.5681 63.5484,184.6863 63.5161,184.8046 " fill="none" id="Grounded-&gt;Airborne" style="stroke: #A80036; stroke-width: 1.0;"/><polygon fill="#A80036" points="63.5161,184.8046,69.7427,177.1737,64.8313,179.9807,62.0244,175.0693,63.5161,184.8046" style="stroke: #A80036; stroke-width: 1.0;"/><text fill="#000000" font-family="sans-serif" font-size="13" lengthAdjust="spacingAndGlyphs" textLength="73" x="92" y="156.897">On Airborne</text><!--MD5=[c261d03e6a611c3fdcf0064dcc212587]
link Grounded to DoubleJumpEnabled--><path d="M193.42,112.02 C210.01,155.09 244.58,248.56 265,330 C275.65,372.49 283.26,422.73 287.4,453.73 " fill="none" id="Grounded-&gt;DoubleJumpEnabled" style="stroke: #A80036; stroke-width: 1.0;"/><polygon fill="#A80036" points="288.08,458.91,290.8893,449.4703,287.437,453.9515,282.9558,450.4992,288.08,458.91" style="stroke: #A80036; stroke-width: 1.0;"/><text fill="#000000" font-family="sans-serif" font-size="13" lengthAdjust="spacingAndGlyphs" textLength="53" x="257" y="295.897">On Jump</text><!--MD5=[6d255cd7cade879d5f9c3bb29568dc56]
@startuml Movement2
state Movement {
state Grounded
state Airborne {
        [*] - -> CoyoteJumpEnabled
state CoyoteJumpEnabled
state DoubleJumpEnabled
state CannotJump

        CoyoteJumpEnabled - -> DoubleJumpEnabled: On Jump
        DoubleJumpEnabled - -> CannotJump: On Jump
        CoyoteJumpEnabled - -> CannotJump: after 0.5s
}

    Grounded - -> Airborne: On Airborne
    Grounded - -> DoubleJumpEnabled: On Jump
}
@enduml

PlantUML version 1.2020.02(Sun Mar 01 11:22:07 CET 2020)
(GPL source distribution)
Java Runtime: OpenJDK Runtime Environment
JVM: OpenJDK 64-Bit Server VM
Java Version: 21.0.6+7-Ubuntu-124.04.1
Operating System: Linux
Default Encoding: UTF-8
Language: en
Country: US
--></g></svg>