<?xml version="1.0" encoding="UTF-8" standalone="no"?><svg xmlns="http://www.w3.org/2000/svg" xmlns:xlink="http://www.w3.org/1999/xlink" contentScriptType="application/ecmascript" contentStyleType="text/css" height="1004px" preserveAspectRatio="none" style="width:464px;height:1004px;" version="1.1" viewBox="0 0 464 1004" width="464px" zoomAndPan="magnify"><defs><filter height="300%" id="f5ov4ecdxfpng" width="300%" x="-1" y="-1"><feGaussianBlur result="blurOut" stdDeviation="2.0"/><feColorMatrix in="blurOut" result="blurOut2" type="matrix" values="0 0 0 0 0 0 0 0 0 0 0 0 0 0 0 0 0 0 .4 0"/><feOffset dx="4.0" dy="4.0" in="blurOut2" result="blurOut3"/><feBlend in="SourceGraphic" in2="blurOut3" mode="normal"/></filter></defs><g><ellipse cx="229" cy="18" fill="#000000" filter="url(#f5ov4ecdxfpng)" rx="10" ry="10" style="stroke: none; stroke-width: 1.0;"/><rect fill="#FEFECE" filter="url(#f5ov4ecdxfpng)" height="905.0679" rx="12.5" ry="12.5" style="stroke: #A80036; stroke-width: 1.5;" width="446" x="6" y="88"/><rect fill="#FFFFFF" height="870" rx="12.5" ry="12.5" style="stroke: #FFFFFF; stroke-width: 1.0;" width="440" x="9" y="120.0679"/><line style="stroke: #A80036; stroke-width: 1.5;" x1="6" x2="452" y1="117.0679" y2="117.0679"/><text fill="#000000" font-family="sans-serif" font-size="14" lengthAdjust="spacingAndGlyphs" textLength="30" x="214" y="107.9659">Root</text><!--MD5=[643947582102f694b546e8d11fa2fdbe]
cluster Movement--><rect fill="#FEFECE" filter="url(#f5ov4ecdxfpng)" height="586" rx="12.5" ry="12.5" style="stroke: #A80036; stroke-width: 1.5;" width="370" x="33" y="146.0679"/><rect fill="#FFFFFF" height="550.9321" rx="12.5" ry="12.5" style="stroke: #FFFFFF; stroke-width: 1.0;" width="364" x="36" y="178.1358"/><line style="stroke: #A80036; stroke-width: 1.5;" x1="33" x2="403" y1="175.1358" y2="175.1358"/><text fill="#000000" font-family="sans-serif" font-size="14" lengthAdjust="spacingAndGlyphs" textLength="71" x="182.5" y="165.0339">Movement</text><!--MD5=[687210b7d685040608df215380f057fd]
cluster Airborne--><rect fill="#FEFECE" filter="url(#f5ov4ecdxfpng)" height="405" rx="12.5" ry="12.5" style="stroke: #A80036; stroke-width: 1.5;" width="306" x="65" y="295.0679"/><rect fill="#FFFFFF" height="369.9321" rx="12.5" ry="12.5" style="stroke: #FFFFFF; stroke-width: 1.0;" width="300" x="68" y="327.1358"/><line style="stroke: #A80036; stroke-width: 1.5;" x1="65" x2="371" y1="324.1358" y2="324.1358"/><text fill="#000000" font-family="sans-serif" font-size="14" lengthAdjust="spacingAndGlyphs" textLength="59" x="188.5" y="314.0339">Airborne</text><rect fill="#FEFECE" filter="url(#f5ov4ecdxfpng)" height="50" rx="12.5" ry="12.5" style="stroke: #A80036; stroke-width: 1.5;" width="88" x="138" y="184.0679"/><line style="stroke: #A80036; stroke-width: 1.5;" x1="138" x2="226" y1="213.1358" y2="213.1358"/><text fill="#000000" font-family="sans-serif" font-size="14" lengthAdjust="spacingAndGlyphs" textLength="68" x="148" y="204.0339">Grounded</text><ellipse cx="175" cy="351.0679" fill="#000000" filter="url(#f5ov4ecdxfpng)" rx="10" ry="10" style="stroke: none; stroke-width: 1.0;"/><rect fill="#FEFECE" filter="url(#f5ov4ecdxfpng)" height="50" rx="12.5" ry="12.5" style="stroke: #A80036; stroke-width: 1.5;" width="155" x="97.5" y="416.0679"/><line style="stroke: #A80036; stroke-width: 1.5;" x1="97.5" x2="252.5" y1="445.1358" y2="445.1358"/><text fill="#000000" font-family="sans-serif" font-size="14" lengthAdjust="spacingAndGlyphs" textLength="135" x="107.5" y="436.0339">CoyoteJumpEnabled</text><rect fill="#FEFECE" filter="url(#f5ov4ecdxfpng)" height="50" rx="12.5" ry="12.5" style="stroke: #A80036; stroke-width: 1.5;" width="158" x="189" y="521.0679"/><line style="stroke: #A80036; stroke-width: 1.5;" x1="189" x2="347" y1="550.1358" y2="550.1358"/><text fill="#000000" font-family="sans-serif" font-size="14" lengthAdjust="spacingAndGlyphs" textLength="138" x="199" y="541.0339">DoubleJumpEnabled</text><rect fill="#FEFECE" filter="url(#f5ov4ecdxfpng)" height="50" rx="12.5" ry="12.5" style="stroke: #A80036; stroke-width: 1.5;" width="103" x="156.5" y="626.0679"/><line style="stroke: #A80036; stroke-width: 1.5;" x1="156.5" x2="259.5" y1="655.1358" y2="655.1358"/><text fill="#000000" font-family="sans-serif" font-size="14" lengthAdjust="spacingAndGlyphs" textLength="83" x="166.5" y="646.0339">CannotJump</text><!--MD5=[2b432747e9a7b4a1de7c1bd4745bcb44]
link *start*Airborne to CoyoteJumpEnabled--><path d="M175,361.1579 C175,372.7779 175,393.4679 175,410.7379 " fill="none" id="*start*Airborne-&gt;CoyoteJumpEnabled" style="stroke: #A80036; stroke-width: 1.0;"/><polygon fill="#A80036" points="175,415.9779,179,406.9779,175,410.9779,171,406.9779,175,415.9779" style="stroke: #A80036; stroke-width: 1.0;"/><!--MD5=[684ccb15a982c6729dd03619c78d58ba]
link CoyoteJumpEnabled to DoubleJumpEnabled--><path d="M153.23,466.1179 C145.3,477.8579 140.03,491.8279 148,503.0679 C153.22,510.4279 167.36,517.3779 184.19,523.4179 " fill="none" id="CoyoteJumpEnabled-&gt;DoubleJumpEnabled" style="stroke: #A80036; stroke-width: 1.0;"/><polygon fill="#A80036" points="189,525.0979,181.8294,518.3464,184.2814,523.4443,179.1836,525.8962,189,525.0979" style="stroke: #A80036; stroke-width: 1.0;"/><text fill="#000000" font-family="sans-serif" font-size="13" lengthAdjust="spacingAndGlyphs" textLength="53" x="149" y="498.9649">On Jump</text><!--MD5=[9e73866773539fee97c85b1463889290]
link DoubleJumpEnabled to CannotJump--><path d="M253.93,571.2179 C245.19,586.2179 233.92,605.5779 224.72,621.3679 " fill="none" id="DoubleJumpEnabled-&gt;CannotJump" style="stroke: #A80036; stroke-width: 1.0;"/><polygon fill="#A80036" points="222.19,625.7179,230.1835,619.9643,224.712,621.4006,223.2757,615.9291,222.19,625.7179" style="stroke: #A80036; stroke-width: 1.0;"/><text fill="#000000" font-family="sans-serif" font-size="13" lengthAdjust="spacingAndGlyphs" textLength="53" x="244" y="603.9649">On Jump</text><!--MD5=[fafec353fd96a2c53b8687be9d66062c]
link CoyoteJumpEnabled to CannotJump--><path d="M152.66,466.4979 C148.16,472.0479 143.68,478.0879 140,484.0679 C119.4,517.5579 108.4,534.9779 124,571.0679 C132.86,591.5679 149.95,609.1979 166.41,622.5779 " fill="none" id="CoyoteJumpEnabled-&gt;CannotJump" style="stroke: #A80036; stroke-width: 1.0;"/><polygon fill="#A80036" points="170.58,625.8779,166.0276,617.1443,166.6673,622.7649,161.0467,623.4046,170.58,625.8779" style="stroke: #A80036; stroke-width: 1.0;"/><text fill="#000000" font-family="sans-serif" font-size="13" lengthAdjust="spacingAndGlyphs" textLength="54" x="125" y="551.4649">after 0.5s</text><!--MD5=[dbe2063fa4ddc6f538c72c04cc60aa0e]
link Grounded to Airborne--><path d="M137.63,231.4779 C118.48,242.9579 97.62,258.9279 85,279.0679 C82.9413,282.3517 81.2052,285.8812 79.7438,289.5488 C79.3784,290.4657 79.0302,291.3913 78.6985,292.3238 C78.5326,292.79 78.3708,293.258 78.2131,293.7275 C78.1342,293.9623 78.0563,294.1974 77.9794,294.4329 C77.941,294.5506 77.9028,294.6685 77.8648,294.7864 " fill="none" id="Grounded-&gt;Airborne" style="stroke: #A80036; stroke-width: 1.0;"/><polygon fill="#A80036" points="77.8648,294.7864,84.4297,287.4445,79.3966,290.0268,76.8143,284.9937,77.8648,294.7864" style="stroke: #A80036; stroke-width: 1.0;"/><text fill="#000000" font-family="sans-serif" font-size="13" lengthAdjust="spacingAndGlyphs" textLength="73" x="109" y="266.9649">On Airborne</text><!--MD5=[c261d03e6a611c3fdcf0064dcc212587]
link Grounded to DoubleJumpEnabled--><path d="M194.41,234.3179 C213.02,272.0379 247.51,347.5679 262,416.0679 C269.13,449.7879 269.86,489.5379 269.31,515.9079 " fill="none" id="Grounded-&gt;DoubleJumpEnabled" style="stroke: #A80036; stroke-width: 1.0;"/><polygon fill="#A80036" points="269.18,520.9979,273.4107,512.104,269.3089,515.9996,265.4133,511.8978,269.18,520.9979" style="stroke: #A80036; stroke-width: 1.0;"/><text fill="#000000" font-family="sans-serif" font-size="13" lengthAdjust="spacingAndGlyphs" textLength="53" x="258" y="393.9649">On Jump</text><line style="stroke: #A80036; stroke-width: 1.5; stroke-dasharray: 8.0,10.0;" x1="11" x2="445" y1="758.0679" y2="758.0679"/><rect fill="#FEFECE" filter="url(#f5ov4ecdxfpng)" height="212.0679" rx="12.5" ry="12.5" style="stroke: #A80036; stroke-width: 1.5;" width="161" x="17" y="766.0679"/><rect fill="#FFFFFF" height="177" rx="12.5" ry="12.5" style="stroke: #FFFFFF; stroke-width: 1.0;" width="155" x="20" y="798.1358"/><line style="stroke: #A80036; stroke-width: 1.5;" x1="17" x2="178" y1="795.1358" y2="795.1358"/><text fill="#000000" font-family="sans-serif" font-size="14" lengthAdjust="spacingAndGlyphs" textLength="118" x="38.5" y="786.0339">AnimationControl</text><rect fill="#FEFECE" filter="url(#f5ov4ecdxfpng)" height="50" rx="12.5" ry="12.5" style="stroke: #A80036; stroke-width: 1.5;" width="50" x="50.09" y="808.1358"/><line style="stroke: #A80036; stroke-width: 1.5;" x1="50.09" x2="100.09" y1="837.2038" y2="837.2038"/><text fill="#000000" font-family="sans-serif" font-size="14" lengthAdjust="spacingAndGlyphs" textLength="26" x="62.09" y="828.1018">Idle</text><rect fill="#FEFECE" filter="url(#f5ov4ecdxfpng)" height="50" rx="12.5" ry="12.5" style="stroke: #A80036; stroke-width: 1.5;" width="56" x="47.09" y="913.1358"/><line style="stroke: #A80036; stroke-width: 1.5;" x1="47.09" x2="103.09" y1="942.2038" y2="942.2038"/><text fill="#000000" font-family="sans-serif" font-size="14" lengthAdjust="spacingAndGlyphs" textLength="36" x="57.09" y="933.1018">Move</text><!--MD5=[e96b53857c36f109f6945a9ad59672a7]
link Idle to Move--><path d="M50.07,850.9958 C42.15,857.7858 34.35,866.3358 30.09,876.1358 C24.15,889.7958 32.27,903.3058 43.16,914.1258 " fill="none" id="Idle-&gt;Move" style="stroke: #A80036; stroke-width: 1.0;"/><polygon fill="#A80036" points="46.95,917.6858,43.1377,908.6048,43.309,914.259,37.6547,914.4304,46.95,917.6858" style="stroke: #A80036; stroke-width: 1.0;"/><text fill="#000000" font-family="sans-serif" font-size="13" lengthAdjust="spacingAndGlyphs" textLength="67" x="31.09" y="891.0328">On Moving</text><!--MD5=[61e8f4f229de5e94130026b7ede0743e]
link Move to Idle--><path d="M91.82,912.7458 C94.82,907.1858 97.5,901.1458 99.09,895.1358 C101.95,884.3558 99.11,872.8958 94.5,862.8458 " fill="none" id="Move-&gt;Idle" style="stroke: #A80036; stroke-width: 1.0;"/><polygon fill="#A80036" points="92.28,858.3358,92.6769,868.1767,94.4932,862.8193,99.8505,864.6356,92.28,858.3358" style="stroke: #A80036; stroke-width: 1.0;"/><text fill="#000000" font-family="sans-serif" font-size="13" lengthAdjust="spacingAndGlyphs" textLength="43" x="101.09" y="891.0328">On Idle</text><!--MD5=[5d36cdb9163b6f605d139726f693f7d9]
link *start to Root--><path d="M229,28.03 C229,38.54 229,57.66 229,82.55 " fill="none" id="*start-&gt;Root" style="stroke: #A80036; stroke-width: 1.0;"/><polygon fill="#A80036" points="229,87.6,233,78.6,229,82.6,225,78.6,229,87.6" style="stroke: #A80036; stroke-width: 1.0;"/><!--MD5=[0b497292abfafc912dfe6ed3a8415dc8]
@startuml root3
[*] - -> Root

state Root {
state Movement {
state Grounded
state Airborne {
        [*] - -> CoyoteJumpEnabled
state CoyoteJumpEnabled
state DoubleJumpEnabled
state CannotJump

        CoyoteJumpEnabled - -> DoubleJumpEnabled: On Jump
        DoubleJumpEnabled - -> CannotJump: On Jump
        CoyoteJumpEnabled - -> CannotJump: after 0.5s
}

    Grounded - -> Airborne: On Airborne
    Grounded - -> DoubleJumpEnabled: On Jump
}
    - - -
state AnimationControl {
state Idle
state Move

    Idle - -> Move: On Moving
    Move - -> Idle: On Idle
}
}
@enduml

PlantUML version 1.2020.02(Sun Mar 01 11:22:07 CET 2020)
(GPL source distribution)
Java Runtime: OpenJDK Runtime Environment
JVM: OpenJDK 64-Bit Server VM
Java Version: 21.0.6+7-Ubuntu-124.04.1
Operating System: Linux
Default Encoding: UTF-8
Language: en
Country: US
--></g></svg>