<?xml version="1.0" encoding="UTF-8" standalone="no"?><svg xmlns="http://www.w3.org/2000/svg" xmlns:xlink="http://www.w3.org/1999/xlink" contentScriptType="application/ecmascript" contentStyleType="text/css" height="231px" preserveAspectRatio="none" style="width:179px;height:231px;" version="1.1" viewBox="0 0 179 231" width="179px" zoomAndPan="magnify"><defs><filter height="300%" id="f1ikc5c2rcelmi" width="300%" x="-1" y="-1"><feGaussianBlur result="blurOut" stdDeviation="2.0"/><feColorMatrix in="blurOut" result="blurOut2" type="matrix" values="0 0 0 0 0 0 0 0 0 0 0 0 0 0 0 0 0 0 .4 0"/><feOffset dx="4.0" dy="4.0" in="blurOut2" result="blurOut3"/><feBlend in="SourceGraphic" in2="blurOut3" mode="normal"/></filter></defs><g><rect fill="#FEFECE" filter="url(#f1ikc5c2rcelmi)" height="212.0679" rx="12.5" ry="12.5" style="stroke: #A80036; stroke-width: 1.5;" width="161" x="6" y="8"/><rect fill="#FFFFFF" height="177" rx="12.5" ry="12.5" style="stroke: #FFFFFF; stroke-width: 1.0;" width="155" x="9" y="40.0679"/><line style="stroke: #A80036; stroke-width: 1.5;" x1="6" x2="167" y1="37.0679" y2="37.0679"/><text fill="#000000" font-family="sans-serif" font-size="14" lengthAdjust="spacingAndGlyphs" textLength="118" x="27.5" y="27.9659">AnimationControl</text><rect fill="#FEFECE" filter="url(#f1ikc5c2rcelmi)" height="50" rx="12.5" ry="12.5" style="stroke: #A80036; stroke-width: 1.5;" width="50" x="39.09" y="50.0679"/><line style="stroke: #A80036; stroke-width: 1.5;" x1="39.09" x2="89.09" y1="79.1358" y2="79.1358"/><text fill="#000000" font-family="sans-serif" font-size="14" lengthAdjust="spacingAndGlyphs" textLength="26" x="51.09" y="70.0339">Idle</text><rect fill="#FEFECE" filter="url(#f1ikc5c2rcelmi)" height="50" rx="12.5" ry="12.5" style="stroke: #A80036; stroke-width: 1.5;" width="56" x="36.09" y="155.0679"/><line style="stroke: #A80036; stroke-width: 1.5;" x1="36.09" x2="92.09" y1="184.1358" y2="184.1358"/><text fill="#000000" font-family="sans-serif" font-size="14" lengthAdjust="spacingAndGlyphs" textLength="36" x="46.09" y="175.0339">Move</text><!--MD5=[e96b53857c36f109f6945a9ad59672a7]
link Idle to Move--><path d="M39.07,92.9279 C31.15,99.7179 23.35,108.2679 19.09,118.0679 C13.15,131.7279 21.27,145.2379 32.16,156.0579 " fill="none" id="Idle-&gt;Move" style="stroke: #A80036; stroke-width: 1.0;"/><polygon fill="#A80036" points="35.95,159.6179,32.1377,150.5368,32.309,156.1911,26.6547,156.3624,35.95,159.6179" style="stroke: #A80036; stroke-width: 1.0;"/><text fill="#000000" font-family="sans-serif" font-size="13" lengthAdjust="spacingAndGlyphs" textLength="67" x="20.09" y="132.9649">On Moving</text><!--MD5=[61e8f4f229de5e94130026b7ede0743e]
link Move to Idle--><path d="M80.82,154.6779 C83.82,149.1179 86.5,143.0779 88.09,137.0679 C90.95,126.2879 88.11,114.8279 83.5,104.7779 " fill="none" id="Move-&gt;Idle" style="stroke: #A80036; stroke-width: 1.0;"/><polygon fill="#A80036" points="81.28,100.2679,81.6769,110.1088,83.4932,104.7514,88.8505,106.5677,81.28,100.2679" style="stroke: #A80036; stroke-width: 1.0;"/><text fill="#000000" font-family="sans-serif" font-size="13" lengthAdjust="spacingAndGlyphs" textLength="43" x="90.09" y="132.9649">On Idle</text><!--MD5=[51935c5a9ad24a544db4490f0aa77e29]
@startuml AnimationControl1
state AnimationControl {
state Idle
state Move

    Idle - -> Move: On Moving
    Move - -> Idle: On Idle
}
@enduml

PlantUML version 1.2020.02(Sun Mar 01 11:22:07 CET 2020)
(GPL source distribution)
Java Runtime: OpenJDK Runtime Environment
JVM: OpenJDK 64-Bit Server VM
Java Version: 21.0.6+7-Ubuntu-124.04.1
Operating System: Linux
Default Encoding: UTF-8
Language: en
Country: US
--></g></svg>