<?xml version="1.0" encoding="UTF-8" standalone="no"?><svg xmlns="http://www.w3.org/2000/svg" xmlns:xlink="http://www.w3.org/1999/xlink" contentScriptType="application/ecmascript" contentStyleType="text/css" height="393px" preserveAspectRatio="none" style="width:306px;height:393px;" version="1.1" viewBox="0 0 306 393" width="306px" zoomAndPan="magnify"><defs><filter height="300%" id="fbvhad6o4x7sy" width="300%" x="-1" y="-1"><feGaussianBlur result="blurOut" stdDeviation="2.0"/><feColorMatrix in="blurOut" result="blurOut2" type="matrix" values="0 0 0 0 0 0 0 0 0 0 0 0 0 0 0 0 0 0 .4 0"/><feOffset dx="4.0" dy="4.0" in="blurOut2" result="blurOut3"/><feBlend in="SourceGraphic" in2="blurOut3" mode="normal"/></filter></defs><g><rect fill="#FEFECE" filter="url(#fbvhad6o4x7sy)" height="374.0679" rx="12.5" ry="12.5" style="stroke: #A80036; stroke-width: 1.5;" width="288" x="6" y="8"/><rect fill="#FFFFFF" height="339" rx="12.5" ry="12.5" style="stroke: #FFFFFF; stroke-width: 1.0;" width="282" x="9" y="40.0679"/><line style="stroke: #A80036; stroke-width: 1.5;" x1="6" x2="294" y1="37.0679" y2="37.0679"/><text fill="#000000" font-family="sans-serif" font-size="14" lengthAdjust="spacingAndGlyphs" textLength="59" x="120.5" y="27.9659">Airborne</text><ellipse cx="154" cy="60.0679" fill="#000000" filter="url(#fbvhad6o4x7sy)" rx="10" ry="10" style="stroke: none; stroke-width: 1.0;"/><rect fill="#FEFECE" filter="url(#fbvhad6o4x7sy)" height="50" rx="12.5" ry="12.5" style="stroke: #A80036; stroke-width: 1.5;" width="155" x="76.5" y="107.0679"/><line style="stroke: #A80036; stroke-width: 1.5;" x1="76.5" x2="231.5" y1="136.1358" y2="136.1358"/><text fill="#000000" font-family="sans-serif" font-size="14" lengthAdjust="spacingAndGlyphs" textLength="135" x="86.5" y="127.0339">CoyoteJumpEnabled</text><rect fill="#FEFECE" filter="url(#fbvhad6o4x7sy)" height="50" rx="12.5" ry="12.5" style="stroke: #A80036; stroke-width: 1.5;" width="158" x="17" y="212.0679"/><line style="stroke: #A80036; stroke-width: 1.5;" x1="17" x2="175" y1="241.1358" y2="241.1358"/><text fill="#000000" font-family="sans-serif" font-size="14" lengthAdjust="spacingAndGlyphs" textLength="138" x="27" y="232.0339">DoubleJumpEnabled</text><rect fill="#FEFECE" filter="url(#fbvhad6o4x7sy)" height="50" rx="12.5" ry="12.5" style="stroke: #A80036; stroke-width: 1.5;" width="103" x="102.5" y="317.0679"/><line style="stroke: #A80036; stroke-width: 1.5;" x1="102.5" x2="205.5" y1="346.1358" y2="346.1358"/><text fill="#000000" font-family="sans-serif" font-size="14" lengthAdjust="spacingAndGlyphs" textLength="83" x="112.5" y="337.0339">CannotJump</text><!--MD5=[2b432747e9a7b4a1de7c1bd4745bcb44]
link *start*Airborne to CoyoteJumpEnabled--><path d="M154,70.2179 C154,78.2579 154,90.3979 154,101.7179 " fill="none" id="*start*Airborne-&gt;CoyoteJumpEnabled" style="stroke: #A80036; stroke-width: 1.0;"/><polygon fill="#A80036" points="154,106.8479,158,97.8479,154,101.8479,150,97.8479,154,106.8479" style="stroke: #A80036; stroke-width: 1.0;"/><!--MD5=[684ccb15a982c6729dd03619c78d58ba]
link CoyoteJumpEnabled to DoubleJumpEnabled--><path d="M140.4,157.2179 C132.03,172.0879 121.24,191.2479 112.39,206.9579 " fill="none" id="CoyoteJumpEnabled-&gt;DoubleJumpEnabled" style="stroke: #A80036; stroke-width: 1.0;"/><polygon fill="#A80036" points="109.71,211.7179,117.6151,205.8434,112.1661,207.3627,110.6467,201.9137,109.71,211.7179" style="stroke: #A80036; stroke-width: 1.0;"/><text fill="#000000" font-family="sans-serif" font-size="13" lengthAdjust="spacingAndGlyphs" textLength="53" x="132" y="189.9649">On Jump</text><!--MD5=[9e73866773539fee97c85b1463889290]
link DoubleJumpEnabled to CannotJump--><path d="M109.6,262.2179 C117.97,277.0879 128.76,296.2479 137.61,311.9579 " fill="none" id="DoubleJumpEnabled-&gt;CannotJump" style="stroke: #A80036; stroke-width: 1.0;"/><polygon fill="#A80036" points="140.29,316.7179,139.3533,306.9137,137.8339,312.3627,132.3849,310.8434,140.29,316.7179" style="stroke: #A80036; stroke-width: 1.0;"/><text fill="#000000" font-family="sans-serif" font-size="13" lengthAdjust="spacingAndGlyphs" textLength="53" x="132" y="294.9649">On Jump</text><!--MD5=[fafec353fd96a2c53b8687be9d66062c]
link CoyoteJumpEnabled to CannotJump--><path d="M179.7,157.3779 C183.92,162.7679 187.67,168.7579 190,175.0679 C209.12,226.7579 209.12,247.3779 190,299.0679 C188.25,303.7979 185.7,308.3479 182.76,312.6079 " fill="none" id="CoyoteJumpEnabled-&gt;CannotJump" style="stroke: #A80036; stroke-width: 1.0;"/><polygon fill="#A80036" points="179.7,316.7579,188.2501,311.8697,182.6587,312.7273,181.8011,307.1358,179.7,316.7579" style="stroke: #A80036; stroke-width: 1.0;"/><text fill="#000000" font-family="sans-serif" font-size="13" lengthAdjust="spacingAndGlyphs" textLength="54" x="206" y="242.4649">after 0.5s</text><!--MD5=[7f9c0ca3a187c662779fb7732aff78d4]
@startuml Airborne1
state Airborne {
        [*] - -> CoyoteJumpEnabled
state CoyoteJumpEnabled
state DoubleJumpEnabled
state CannotJump

        CoyoteJumpEnabled - -> DoubleJumpEnabled: On Jump
        DoubleJumpEnabled - -> CannotJump: On Jump
        CoyoteJumpEnabled - -> CannotJump: after 0.5s
}
@enduml

PlantUML version 1.2020.02(Sun Mar 01 11:22:07 CET 2020)
(GPL source distribution)
Java Runtime: OpenJDK Runtime Environment
JVM: OpenJDK 64-Bit Server VM
Java Version: 21.0.6+7-Ubuntu-124.04.1
Operating System: Linux
Default Encoding: UTF-8
Language: en
Country: US
--></g></svg>